<svg width="117" height="33" viewBox="0 0 117 33" fill="none" xmlns="http://www.w3.org/2000/svg">
<path opacity="0.1" fill-rule="evenodd" clip-rule="evenodd" d="M1.24341 21.8417C1.24341 21.8417 5.75801 21.1092 10.8909 22.8688C20.6532 26.2154 21.2101 20.087 24.8301 17.132C28.142 14.4285 30.8848 16.078 34.5724 19.3841C37.2921 21.8226 41.2557 25.9158 45.3605 25.2568C49.1127 24.6545 51.7727 19.8537 56.9737 18.6328C61.0958 17.6652 64.4456 20.3236 69.1922 19.3841C75.6314 18.1098 78.5077 10.6073 83.1097 10.6073C88.7897 10.6073 92.7887 4.26196 97.9559 4.26196C103.093 4.26196 103.79 7.99317 109.409 10.6073C113.704 12.6058 115.771 10.6073 115.771 10.6073V32.0228H1.24341V21.8417Z" fill="url(#paint0_linear_2_4857)"/>
<path d="M1.24341 18.5149C1.24341 18.5149 5.75801 17.7931 10.8909 19.5272C20.6532 22.8253 21.2101 16.7856 24.8301 13.8734C28.142 11.209 30.8848 12.8347 34.5724 16.093C37.2921 18.4961 41.2557 22.53 45.3605 21.8806C49.1127 21.287 51.7727 16.5557 56.9737 15.3525C61.0958 14.3989 64.4456 17.0188 69.1922 16.093C75.6314 14.837 78.5077 7.44315 83.1097 7.44315C88.7897 7.44315 92.7887 1.17456 97.9559 1.17456C103.093 1.17456 103.366 4.86687 108.985 7.44315C113.28 9.41274 115.771 7.44315 115.771 7.44315" stroke="#1B59F8" stroke-width="1.84723" stroke-linecap="round" stroke-linejoin="round"/>
<defs>
<linearGradient id="paint0_linear_2_4857" x1="21.9416" y1="18.348" x2="21.9416" y2="32.0228" gradientUnits="userSpaceOnUse">
<stop stop-color="#0062FF"/>
<stop offset="1" stop-color="white" stop-opacity="0.01"/>
</linearGradient>
</defs>
</svg>
