<svg width="11" height="12" viewBox="0 0 11 12" fill="none" xmlns="http://www.w3.org/2000/svg">
<path d="M5.85136 4.71371C5.50038 4.71371 5.21637 4.99749 5.21637 5.3487V8.52362C5.21637 8.87483 5.50038 9.1586 5.85136 9.1586C6.20233 9.1586 6.48634 8.87483 6.48634 8.52362V5.3487C6.48634 4.99749 6.20233 4.71371 5.85136 4.71371Z" fill="#6B6C7E"/>
<path d="M6.48634 3.44374C6.48634 3.79441 6.20233 4.07873 5.85136 4.07873C5.50038 4.07873 5.21637 3.79441 5.21637 3.44374C5.21637 3.09308 5.50038 2.80876 5.85136 2.80876C6.20233 2.80876 6.48634 3.09308 6.48634 3.44374Z" fill="#6B6C7E"/>
<path fill-rule="evenodd" clip-rule="evenodd" d="M5.85136 0.903809C7.20876 0.903809 8.48431 1.43167 9.44298 2.39205C10.4035 3.3505 10.9312 4.62643 10.9312 5.98368C10.9312 7.34093 10.4035 8.61493 9.44298 9.57531C8.48431 10.5357 7.20876 11.0636 5.85136 11.0636C4.49395 11.0636 3.22027 10.5357 2.25973 9.57531C1.29919 8.61686 0.771484 7.34093 0.771484 5.98368C0.771484 4.62643 1.29919 3.3505 2.25973 2.39205C3.2184 1.43167 4.49395 0.903809 5.85136 0.903809ZM2.04145 5.98368C2.04145 8.08505 3.74983 9.79358 5.85136 9.79358C7.95288 9.79358 9.66126 8.08505 9.66126 5.98368C9.66126 3.88231 7.95288 2.17378 5.85136 2.17378C3.74983 2.17378 2.04145 3.88231 2.04145 5.98368Z" fill="#6B6C7E"/>
</svg>
